:SAMPLES-PER-SECOND 30
:FULLY-SPECIFIED
:DEGREES
792
root  47.7798 39.8571 21.4061 174.402 -58.0457 -178.388
RightUpLeg  -13.6477 -10.799 -1.53217
RightLeg  29.8222 -6.82941 -4.45369
RightFoot  -5.49708 -0.247871 4.12226
RightToes  0.00048216 0.542163 -0.142577
Spine  25.0127 -1.20282 3.42307
Spine1  8.66578 -0.619686 -0.106554
HEad  -21.5947 7.72678 -10.6292
LeftShoulder1  10.357 -16.422 -45.3019
LeftArm  11.3866 5.08241 -35.7187
LeftForeArm  86.0417 -80.0801 -75.7058
LeftHand  -0.25398 0.0180481 5.50724
RightShoulder  6.12586 10.8168 36.7729
RightArm  2.43786 -20.2216 37.3638
RightForeArm  70.516 77.5765 109.573
RightHand  -10.5727 21.8156 -43.3616
LeftUpLeg  4.08394 10.8812 0.844266
LeftLeg  13.0683 19.8296 -1.54563
LeftFoot  -14.4539 0.0985889 0.430383
LeftToes  1.06245e-005 4.65856e-005 -8.18504e-006
793
root  46.6458 39.7304 21.1429 173.956 -60.0985 -178.922
RightUpLeg  -15.0377 -11.9265 0.617691
RightLeg  23.8969 -5.41395 -2.90651
RightFoot  -5.09376 -0.277454 4.45076
RightToes  0.00048216 0.542163 -0.142577
Spine  24.4889 -1.2247 2.62704
Spine1  8.88801 -0.909605 0.136333
HEad  -20.0947 7.10655 -9.83578
LeftShoulder1  10.288 -16.3658 -45.1207
LeftArm  11.5441 4.4618 -35.6279
LeftForeArm  88.6208 -80.1797 -78.4315
LeftHand  -0.25398 0.0180481 5.50724
RightShoulder  6.18104 10.8663 37.0028
RightArm  2.14641 -20.1235 37.1026
RightForeArm  73.857 77.3098 112.827
RightHand  -10.6878 21.9523 -43.5875
LeftUpLeg  7.3309 8.45153 0.0140961
LeftLeg  11.8813 20.408 -2.09109
LeftFoot  -15.8057 0.112704 0.484436
LeftToes  1.06245e-005 4.65856e-005 -8.18504e-006
794
root  45.4354 39.4868 20.8523 173.97 -62.4643 179.778
RightUpLeg  -15.7114 -13.7882 1.84445
RightLeg  17.1587 -4.46872 -1.4318
RightFoot  -4.61881 -0.287063 4.34617
RightToes  0.00048216 0.542163 -0.142577
Spine  24.2709 -1.34139 1.5573
Spine1  8.99841 -1.34897 0.387518
HEad  -18.3951 6.55015 -9.23676
LeftShoulder1  10.3154 -16.3737 -45.2268
LeftArm  11.7306 3.88483 -35.5395
LeftForeArm  91.1157 -80.2531 -81.118
LeftHand  -0.25398 0.0180481 5.50724
RightShoulder  6.20237 10.8592 37.1674
RightArm  1.91578 -19.9265 36.648
RightForeArm  77.1887 76.9755 116.18
RightHand  -10.7017 21.9176 -43.6892
LeftUpLeg  10.6135 7.04749 -1.12664
LeftLeg  11.5084 19.6148 -2.17545
LeftFoot  -17.4794 0.116753 0.214481
LeftToes  1.06245e-005 4.65856e-005 -8.18504e-006
795
root  44.1152 39.1886 20.5193 174.452 -64.9866 177.992
RightUpLeg  -15.4765 -12.1456 0.992648
RightLeg  9.81117 -8.25984 1.16411
RightFoot  -3.82161 -0.339616 4.76351
RightToes  0.00048216 0.542163 -0.142577
Spine  23.8055 -1.48127 0.488855
Spine1  9.40875 -1.85714 0.774184
HEad  -16.5317 6.16683 -9.11393
LeftShoulder1  10.3887 -16.3792 -45.5478
LeftArm  12.0964 3.22271 -35.4961
LeftForeArm  92.2772 -80.2805 -82.3291
LeftHand  -0.25398 0.0180481 5.50724
RightShoulder  6.14522 10.7432 37.1192
RightArm  1.69488 -19.6544 36.2821
RightForeArm  80.0916 76.6344 119.087
RightHand  -10.6656 21.8057 -43.7196
LeftUpLeg  14.1578 6.41534 -2.16047
LeftLeg  11.1427 18.2197 -2.27144
LeftFoot  -18.9505 0.162894 0.725216
LeftToes  1.06245e-005 4.65856e-005 -8.18504e-006
796
root  42.6794 38.8701 20.1519 175.543 -67.4729 176.147
RightUpLeg  -15.033 -6.09963 -1.59157
RightLeg  1.94661 -16.5704 4.93495
RightFoot  -3.14072 -0.411794 5.43909
RightToes  0.00048216 0.542163 -0.142577
Spine  22.5203 -1.61241 -0.169584
Spine1  10.1636 -2.28743 1.19201
HEad  -14.6027 5.58401 -9.23476
LeftShoulder1  10.4058 -16.2888 -45.842
LeftArm  12.6982 2.50483 -35.7231
LeftForeArm  91.443 -80.261 -81.4524
LeftHand  -0.25398 0.0180481 5.50724
RightShoulder  6.03607 10.551 36.9389
RightArm  1.41198 -19.5932 35.9614
RightForeArm  82.7775 76.2667 121.799
RightHand  -10.838 22.0205 -44.0374
LeftUpLeg  17.636 6.24248 -2.8271
LeftLeg  10.3694 16.6437 -2.51952
LeftFoot  -20.1696 0.258484 1.77917
LeftToes  1.06245e-005 4.65856e-005 -8.18504e-006
797
root  41.1387 38.4998 19.753 176.982 -69.9055 174.531
RightUpLeg  -15.6189 -5.13969 -2.45899
RightLeg  -3.64855 -18.4347 6.79215
RightFoot  -3.33452 -0.469011 6.39396
RightToes  0.00048216 0.542163 -0.142577
Spine  20.8631 -1.78146 -0.395388
Spine1  10.6108 -2.6152 1.51932
HEad  -12.6798 4.50518 -9.13415
LeftShoulder1  10.3444 -16.1023 -46.0118
LeftArm  13.3768 2.02679 -36.2548
LeftForeArm  89.4709 -80.2042 -79.5461
LeftHand  -0.25398 0.0180481 5.50724
RightShoulder  5.93486 10.3729 36.7663
RightArm  1.08337 -19.8927 35.5289
RightForeArm  85.3662 75.8379 124.54
RightHand  -11.2126 22.5444 -44.6302
LeftUpLeg  20.576 6.22379 -2.99569
LeftLeg  10.0633 14.5776 -2.63416
LeftFoot  -21.6319 0.293571 1.83808
LeftToes  1.06245e-005 4.65856e-005 -8.18504e-006
798
root  39.5336 38.1155 19.3105 177.607 -72.5193 173.735
RightUpLeg  -16.5834 -5.39664 -2.88295
RightLeg  -4.49107 -18.2424 6.89555
RightFoot  -4.32477 -0.473005 7.17913
RightToes  0.00048216 0.542163 -0.142577
Spine  19.9716 -2.05858 -0.383782
Spine1  10.3883 -3.06116 2.05944
HEad  -11.3019 3.4061 -8.79214
LeftShoulder1  10.3047 -15.9622 -46.1702
LeftArm  13.9198 1.98185 -36.7477
LeftForeArm  88.3185 -80.1653 -78.4683
LeftHand  -0.25398 0.0180481 5.50724
RightShoulder  5.84507 10.2326 36.5557
RightArm  0.837759 -20.2973 35.0755
RightForeArm  87.4527 75.373 127.083
RightHand  -11.4233 22.7954 -45.0157
LeftUpLeg  23.2047 6.44052 -2.22359
LeftLeg  10.8707 11.8621 -2.48996
LeftFoot  -23.0728 0.217127 0.764947
LeftToes  1.06245e-005 4.65856e-005 -8.18504e-006
